# xmcd
# Copyright (C) 1995-1998 Ti Kan
#
# Track frame offsets:
#       150
#       21520
#       48708
#       75826
#       103098
#       120800
#       148130
#       171809
#       192597
#       209055
#       241159
#
# Disc length: 4297 seconds
#
# Revision: 0
# Processed by: cddbd v1.5.2PL0 Copyright (c) Steve Scherf et al.
# Submitted via: CD-Transfer v1.0
#
DISCID=9910c70b
DTITLE=Brainless - La Promenade Du Micocoulier Rose
DYEAR=06
DGENRE=
TTITLE0=Pink Sheep
TTITLE1=Fisherman (Puzzolent' Verzione)
TTITLE2=Synoptique
TTITLE3=La Promenade Du Lézard
TTITLE4=Untitled
TTITLE5=Shake Your Body
TTITLE6=Micocoulier
TTITLE7=The Gig
TTITLE8=Fisherman (Short Version)
TTITLE9=La Promenade Du Lézard (Short Version)
TTITLE10=Data Track
EXTD=
EXTT0=
EXTT1=
EXTT2=
EXTT3=
EXTT4=
EXTT5=
EXTT6=
EXTT7=
EXTT8=
EXTT9=
EXTT10=
PLAYORDER=
